{
	"asset": {
		"generator": "VISUALIZEGLTF",
		"version" : "2.0"
	},
	"scenes": [
		{
			"name": "Default",
			"nodes": [
				0]
		}
	],
	"nodes": [
		{
			"children": [
				1, 17, 18, 19
			]
			,"name": "Kök"		}
,
		{
			"children": [
				2
			]
			,"matrix": [
				1,					0,					0,					0,
				0,					1,					0,					0,
				0,					0,					1,					0,
				0,					-0.0616151,					0,					1
			]
			,"name": "bird - karakter 2 (Varsayılan)"		}
,
		{
			"children": [
				3, 4, 5, 6, 7, 8, 9, 10, 11, 12, 13, 14, 15, 16
			]
			,"name": "Varsayılan"		}
,
		{
			"mesh": 0
			,"name": "texture-4"		}
,
		{
			"mesh": 1
			,"name": "texture-5"		}
,
		{
			"mesh": 2
			,"name": "texture-6"		}
,
		{
			"mesh": 3
			,"name": "texture-7"		}
,
		{
			"mesh": 4
			,"name": "texture-8"		}
,
		{
			"mesh": 5
			,"name": "texture-9"		}
,
		{
			"mesh": 6
			,"name": "texture-10"		}
,
		{
			"mesh": 7
			,"name": "-2"		}
,
		{
			"mesh": 8
			,"name": "-1"		}
,
		{
			"mesh": 9
			,"name": "-2 2"		}
,
		{
			"mesh": 10
			,"name": "-1-1"		}
,
		{
			"mesh": 11
			,"name": "-1-2"		}
,
		{
			"mesh": 12
			,"name": "-1 2"		}
,
		{
			"mesh": 13
			,"name": "-2 3"		}
,
		{
			"matrix": [
				0.4876518,					-9.685756E-07,					-0.8730383,					0,
				-0.2608997,					0.9543028,					-0.1457314,					0,
				0.8331429,					0.2988415,					0.4653672,					0,
				1.30066,					0.524583,					0.5448883,					1
			]
			,"camera": 0
			,"name": "Default Camera"		}
,
		{
			"name": "High Contrast Ramp"		}
,
		{
			"name": "Studio Soft Grey 12"		}
	],
	"cameras": [
		{
			"type": "perspective",
			"perspective" : {
				"aspectRatio": 1.777778,
				"yfov" : 0.2617994,
				"zfar" : 100,
				"znear" : 0.01
			}
		}
	],
	"meshes" : [
		{
			"primitives" : [
				{
					"attributes" : {
					"POSITION" : 1
					,"NORMAL" : 2
					,"TEXCOORD_0" : 3
					},
					"indices" : 0,
					"mode": 4,
					"material" : 0
				}
			]
		},
		{
			"primitives" : [
				{
					"attributes" : {
					"POSITION" : 5
					,"NORMAL" : 6
					,"TEXCOORD_0" : 7
					},
					"indices" : 4,
					"mode": 4,
					"material" : 1
				}
			]
		},
		{
			"primitives" : [
				{
					"attributes" : {
					"POSITION" : 9
					,"NORMAL" : 10
					,"TEXCOORD_0" : 11
					},
					"indices" : 8,
					"mode": 4,
					"material" : 2
				}
			]
		},
		{
			"primitives" : [
				{
					"attributes" : {
					"POSITION" : 13
					,"NORMAL" : 14
					,"TEXCOORD_0" : 15
					},
					"indices" : 12,
					"mode": 4,
					"material" : 3
				}
			]
		},
		{
			"primitives" : [
				{
					"attributes" : {
					"POSITION" : 17
					,"NORMAL" : 18
					,"TEXCOORD_0" : 19
					},
					"indices" : 16,
					"mode": 4,
					"material" : 4
				}
			]
		},
		{
			"primitives" : [
				{
					"attributes" : {
					"POSITION" : 21
					,"NORMAL" : 22
					,"TEXCOORD_0" : 23
					},
					"indices" : 20,
					"mode": 4,
					"material" : 5
				}
			]
		},
		{
			"primitives" : [
				{
					"attributes" : {
					"POSITION" : 25
					,"NORMAL" : 26
					,"TEXCOORD_0" : 27
					},
					"indices" : 24,
					"mode": 4,
					"material" : 6
				}
			]
		},
		{
			"primitives" : [
				{
					"attributes" : {
					"POSITION" : 29
					,"NORMAL" : 30
					,"TEXCOORD_0" : 31
					},
					"indices" : 28,
					"mode": 4,
					"material" : 7
				}
			]
		},
		{
			"primitives" : [
				{
					"attributes" : {
					"POSITION" : 33
					,"NORMAL" : 34
					,"TEXCOORD_0" : 35
					},
					"indices" : 32,
					"mode": 4,
					"material" : 8
				}
			]
		},
		{
			"primitives" : [
				{
					"attributes" : {
					"POSITION" : 37
					,"NORMAL" : 38
					,"TEXCOORD_0" : 39
					},
					"indices" : 36,
					"mode": 4,
					"material" : 9
				}
			]
		},
		{
			"primitives" : [
				{
					"attributes" : {
					"POSITION" : 41
					,"NORMAL" : 42
					,"TEXCOORD_0" : 43
					},
					"indices" : 40,
					"mode": 4,
					"material" : 10
				}
			]
		},
		{
			"primitives" : [
				{
					"attributes" : {
					"POSITION" : 45
					,"NORMAL" : 46
					,"TEXCOORD_0" : 47
					},
					"indices" : 44,
					"mode": 4,
					"material" : 11
				}
			]
		},
		{
			"primitives" : [
				{
					"attributes" : {
					"POSITION" : 49
					,"NORMAL" : 50
					,"TEXCOORD_0" : 51
					},
					"indices" : 48,
					"mode": 4,
					"material" : 12
				}
			]
		},
		{
			"primitives" : [
				{
					"attributes" : {
					"POSITION" : 53
					,"NORMAL" : 54
					,"TEXCOORD_0" : 55
					},
					"indices" : 52,
					"mode": 4,
					"material" : 13
				}
			]
		}
	],
	"accessors" : [
			{
				"bufferView": 3,
				"byteOffset" : 0,
				"componentType" : 5125,
				"count" : 498,
				"type" : "SCALAR"
			},
			{
				"bufferView": 0,
				"byteOffset" : 0,
				"componentType" : 5126,
				"count" : 240,
				"type" : "VEC3"
								,"min": [0.326136261,0.145499811,-0.0382383689]
								,"max": [0.358267963,0.157940939,-0.0308062751]
			},
			{
				"bufferView": 1,
				"byteOffset" : 0,
				"componentType" : 5126,
				"count" : 240,
				"type" : "VEC3"
			},
			{
				"bufferView": 2,
				"byteOffset" : 0,
				"componentType" : 5126,
				"count" : 240,
				"type" : "VEC2"
			},
			{
				"bufferView": 7,
				"byteOffset" : 0,
				"componentType" : 5125,
				"count" : 5958,
				"type" : "SCALAR"
			},
			{
				"bufferView": 4,
				"byteOffset" : 0,
				"componentType" : 5126,
				"count" : 2752,
				"type" : "VEC3"
								,"min": [0.322205812,0.0971550718,-0.0648214221]
								,"max": [0.362837523,0.150347605,-0.0332389399]
			},
			{
				"bufferView": 5,
				"byteOffset" : 0,
				"componentType" : 5126,
				"count" : 2752,
				"type" : "VEC3"
			},
			{
				"bufferView": 6,
				"byteOffset" : 0,
				"componentType" : 5126,
				"count" : 2752,
				"type" : "VEC2"
			},
			{
				"bufferView": 11,
				"byteOffset" : 0,
				"componentType" : 5125,
				"count" : 4158,
				"type" : "SCALAR"
			},
			{
				"bufferView": 8,
				"byteOffset" : 0,
				"componentType" : 5126,
				"count" : 1954,
				"type" : "VEC3"
								,"min": [0.31317535,0.306805521,0.131337881]
								,"max": [0.361999989,0.34048906,0.188090861]
			},
			{
				"bufferView": 9,
				"byteOffset" : 0,
				"componentType" : 5126,
				"count" : 1954,
				"type" : "VEC3"
			},
			{
				"bufferView": 10,
				"byteOffset" : 0,
				"componentType" : 5126,
				"count" : 1954,
				"type" : "VEC2"
			},
			{
				"bufferView": 15,
				"byteOffset" : 0,
				"componentType" : 5125,
				"count" : 651,
				"type" : "SCALAR"
			},
			{
				"bufferView": 12,
				"byteOffset" : 0,
				"componentType" : 5126,
				"count" : 367,
				"type" : "VEC3"
								,"min": [0.348448187,0.199271977,0.0605308227]
								,"max": [0.380155116,0.352099478,0.1470581]
			},
			{
				"bufferView": 13,
				"byteOffset" : 0,
				"componentType" : 5126,
				"count" : 367,
				"type" : "VEC3"
			},
			{
				"bufferView": 14,
				"byteOffset" : 0,
				"componentType" : 5126,
				"count" : 367,
				"type" : "VEC2"
			},
			{
				"bufferView": 19,
				"byteOffset" : 0,
				"componentType" : 5125,
				"count" : 90,
				"type" : "SCALAR"
			},
			{
				"bufferView": 16,
				"byteOffset" : 0,
				"componentType" : 5126,
				"count" : 48,
				"type" : "VEC3"
								,"min": [0.299552619,0.203515545,-0.00721199997]
								,"max": [0.300767243,0.22924152,0.0580429509]
			},
			{
				"bufferView": 17,
				"byteOffset" : 0,
				"componentType" : 5126,
				"count" : 48,
				"type" : "VEC3"
			},
			{
				"bufferView": 18,
				"byteOffset" : 0,
				"componentType" : 5126,
				"count" : 48,
				"type" : "VEC2"
			},
			{
				"bufferView": 23,
				"byteOffset" : 0,
				"componentType" : 5125,
				"count" : 22032,
				"type" : "SCALAR"
			},
			{
				"bufferView": 20,
				"byteOffset" : 0,
				"componentType" : 5126,
				"count" : 7826,
				"type" : "VEC3"
								,"min": [0.319125772,0.344432145,0.139073655]
								,"max": [0.363821238,0.350431919,0.146621898]
			},
			{
				"bufferView": 21,
				"byteOffset" : 0,
				"componentType" : 5126,
				"count" : 7826,
				"type" : "VEC3"
			},
			{
				"bufferView": 22,
				"byteOffset" : 0,
				"componentType" : 5126,
				"count" : 7826,
				"type" : "VEC2"
			},
			{
				"bufferView": 27,
				"byteOffset" : 0,
				"componentType" : 5125,
				"count" : 26928,
				"type" : "SCALAR"
			},
			{
				"bufferView": 24,
				"byteOffset" : 0,
				"componentType" : 5126,
				"count" : 10008,
				"type" : "VEC3"
								,"min": [0.327929944,0.34627533,0.14345409]
								,"max": [0.356096625,0.349775314,0.14786984]
			},
			{
				"bufferView": 25,
				"byteOffset" : 0,
				"componentType" : 5126,
				"count" : 10008,
				"type" : "VEC3"
			},
			{
				"bufferView": 26,
				"byteOffset" : 0,
				"componentType" : 5126,
				"count" : 10008,
				"type" : "VEC2"
			},
			{
				"bufferView": 31,
				"byteOffset" : 0,
				"componentType" : 5125,
				"count" : 252,
				"type" : "SCALAR"
			},
			{
				"bufferView": 28,
				"byteOffset" : 0,
				"componentType" : 5126,
				"count" : 100,
				"type" : "VEC3"
								,"min": [0.329625517,0.172173172,-0.127131581]
								,"max": [0.353092045,0.281017631,0.0351205356]
			},
			{
				"bufferView": 29,
				"byteOffset" : 0,
				"componentType" : 5126,
				"count" : 100,
				"type" : "VEC3"
			},
			{
				"bufferView": 30,
				"byteOffset" : 0,
				"componentType" : 5126,
				"count" : 100,
				"type" : "VEC2"
			},
			{
				"bufferView": 35,
				"byteOffset" : 0,
				"componentType" : 5125,
				"count" : 131838,
				"type" : "SCALAR"
			},
			{
				"bufferView": 32,
				"byteOffset" : 0,
				"componentType" : 5126,
				"count" : 57102,
				"type" : "VEC3"
								,"min": [0.374903798,0.222070873,0.0318492688]
								,"max": [0.579070628,0.315605611,0.110922106]
			},
			{
				"bufferView": 33,
				"byteOffset" : 0,
				"componentType" : 5126,
				"count" : 57102,
				"type" : "VEC3"
			},
			{
				"bufferView": 34,
				"byteOffset" : 0,
				"componentType" : 5126,
				"count" : 57102,
				"type" : "VEC2"
			},
			{
				"bufferView": 39,
				"byteOffset" : 0,
				"componentType" : 5125,
				"count" : 1011,
				"type" : "SCALAR"
			},
			{
				"bufferView": 36,
				"byteOffset" : 0,
				"componentType" : 5126,
				"count" : 464,
				"type" : "VEC3"
								,"min": [0.40329504,0.287265182,0.0472135581]
								,"max": [0.560064793,0.313630402,0.0866203308]
			},
			{
				"bufferView": 37,
				"byteOffset" : 0,
				"componentType" : 5126,
				"count" : 464,
				"type" : "VEC3"
			},
			{
				"bufferView": 38,
				"byteOffset" : 0,
				"componentType" : 5126,
				"count" : 464,
				"type" : "VEC2"
			},
			{
				"bufferView": 43,
				"byteOffset" : 0,
				"componentType" : 5125,
				"count" : 31017,
				"type" : "SCALAR"
			},
			{
				"bufferView": 40,
				"byteOffset" : 0,
				"componentType" : 5126,
				"count" : 14339,
				"type" : "VEC3"
								,"min": [0.29955259,0.0619151033,-0.159248799]
								,"max": [0.382915556,0.369960934,0.147776678]
			},
			{
				"bufferView": 41,
				"byteOffset" : 0,
				"componentType" : 5126,
				"count" : 14339,
				"type" : "VEC3"
			},
			{
				"bufferView": 42,
				"byteOffset" : 0,
				"componentType" : 5126,
				"count" : 14339,
				"type" : "VEC2"
			},
			{
				"bufferView": 47,
				"byteOffset" : 0,
				"componentType" : 5125,
				"count" : 768,
				"type" : "SCALAR"
			},
			{
				"bufferView": 44,
				"byteOffset" : 0,
				"componentType" : 5126,
				"count" : 296,
				"type" : "VEC3"
								,"min": [0.357186049,0.15475665,-0.142007366]
								,"max": [0.382118255,0.284892529,0.0604206584]
			},
			{
				"bufferView": 45,
				"byteOffset" : 0,
				"componentType" : 5126,
				"count" : 296,
				"type" : "VEC3"
			},
			{
				"bufferView": 46,
				"byteOffset" : 0,
				"componentType" : 5126,
				"count" : 296,
				"type" : "VEC2"
			},
			{
				"bufferView": 51,
				"byteOffset" : 0,
				"componentType" : 5125,
				"count" : 128361,
				"type" : "SCALAR"
			},
			{
				"bufferView": 48,
				"byteOffset" : 0,
				"componentType" : 5126,
				"count" : 55370,
				"type" : "VEC3"
								,"min": [0.103383578,0.221845791,0.0335641205]
								,"max": [0.306813776,0.315605611,0.11592935]
			},
			{
				"bufferView": 49,
				"byteOffset" : 0,
				"componentType" : 5126,
				"count" : 55370,
				"type" : "VEC3"
			},
			{
				"bufferView": 50,
				"byteOffset" : 0,
				"componentType" : 5126,
				"count" : 55370,
				"type" : "VEC2"
			},
			{
				"bufferView": 55,
				"byteOffset" : 0,
				"componentType" : 5125,
				"count" : 795,
				"type" : "SCALAR"
			},
			{
				"bufferView": 52,
				"byteOffset" : 0,
				"componentType" : 5126,
				"count" : 396,
				"type" : "VEC3"
								,"min": [0.108674176,0.288172215,0.0495629609]
								,"max": [0.273308367,0.312185854,0.101799287]
			},
			{
				"bufferView": 53,
				"byteOffset" : 0,
				"componentType" : 5126,
				"count" : 396,
				"type" : "VEC3"
			},
			{
				"bufferView": 54,
				"byteOffset" : 0,
				"componentType" : 5126,
				"count" : 396,
				"type" : "VEC2"
			}
	],
	"materials": [
			{
				"name": "Görünüm",
				"emissiveFactor": [
					0, 0, 0
				]
				,"pbrMetallicRoughness": {
					"baseColorFactor": [
						0.1036341, 0.325037, 0.003697239, 1
					]
					,"metallicFactor": 0
					,"roughnessFactor": 1
				}
				,"alphaMode": "OPAQUE"
				,"doubleSided": true
			},
			{
				"name": "Görünüm 5",
				"emissiveFactor": [
					0, 0, 0
				]
				,"pbrMetallicRoughness": {
					"baseColorFactor": [
						1, 0.6054843, 0.1939722, 1
					]
					,"metallicFactor": 0
					,"roughnessFactor": 1
				}
				,"alphaMode": "OPAQUE"
				,"doubleSided": true
			},
			{
				"name": "Görünüm 4",
				"emissiveFactor": [
					0, 0, 0
				]
				,"pbrMetallicRoughness": {
					"baseColorFactor": [
						0.2758329, 0.09387587, 0, 1
					]
					,"metallicFactor": 0
					,"roughnessFactor": 1
				}
				,"alphaMode": "OPAQUE"
				,"doubleSided": true
			},
			{
				"name": "Görünüm 7",
				"emissiveFactor": [
					0, 0, 0
				]
				,"pbrMetallicRoughness": {
					"baseColorFactor": [
						0.147998, 0.2195197, 0.5234432, 1
					]
					,"metallicFactor": 0
					,"roughnessFactor": 1
				}
				,"alphaMode": "OPAQUE"
				,"doubleSided": true
			},
			{
				"name": "Görünüm 7",
				"emissiveFactor": [
					0, 0, 0
				]
				,"pbrMetallicRoughness": {
					"baseColorFactor": [
						0.147998, 0.2195197, 0.5234432, 1
					]
					,"metallicFactor": 0
					,"roughnessFactor": 1
				}
				,"alphaMode": "OPAQUE"
				,"doubleSided": true
			},
			{
				"name": "Görünüm 2",
				"emissiveFactor": [
					0, 0, 0
				]
				,"pbrMetallicRoughness": {
					"baseColorFactor": [
						0.6940805, 0.6940805, 0.6940805, 1
					]
					,"metallicFactor": 0
					,"roughnessFactor": 1
				}
				,"alphaMode": "OPAQUE"
				,"doubleSided": true
			},
			{
				"name": "Görünüm 3",
				"emissiveFactor": [
					0, 0, 0
				]
				,"pbrMetallicRoughness": {
					"baseColorFactor": [
						0.01517524, 0.01517524, 0.01517524, 1
					]
					,"metallicFactor": 0
					,"roughnessFactor": 1
				}
				,"alphaMode": "OPAQUE"
				,"doubleSided": true
			},
			{
				"name": "Görünüm",
				"emissiveFactor": [
					0, 0, 0
				]
				,"pbrMetallicRoughness": {
					"baseColorFactor": [
						0.1036341, 0.325037, 0.003697239, 1
					]
					,"metallicFactor": 0
					,"roughnessFactor": 1
				}
				,"alphaMode": "OPAQUE"
				,"doubleSided": true
			},
			{
				"name": "Görünüm",
				"emissiveFactor": [
					0, 0, 0
				]
				,"pbrMetallicRoughness": {
					"baseColorFactor": [
						0.1036341, 0.325037, 0.003697239, 1
					]
					,"metallicFactor": 0
					,"roughnessFactor": 1
				}
				,"alphaMode": "OPAQUE"
				,"doubleSided": true
			},
			{
				"name": "Görünüm 7",
				"emissiveFactor": [
					0, 0, 0
				]
				,"pbrMetallicRoughness": {
					"baseColorFactor": [
						0.147998, 0.2195197, 0.5234432, 1
					]
					,"metallicFactor": 0
					,"roughnessFactor": 1
				}
				,"alphaMode": "OPAQUE"
				,"doubleSided": true
			},
			{
				"name": "Görünüm",
				"emissiveFactor": [
					0, 0, 0
				]
				,"pbrMetallicRoughness": {
					"baseColorFactor": [
						0.1036341, 0.325037, 0.003697239, 1
					]
					,"metallicFactor": 0
					,"roughnessFactor": 1
				}
				,"alphaMode": "OPAQUE"
				,"doubleSided": true
			},
			{
				"name": "Görünüm 7",
				"emissiveFactor": [
					0, 0, 0
				]
				,"pbrMetallicRoughness": {
					"baseColorFactor": [
						0.147998, 0.2195197, 0.5234432, 1
					]
					,"metallicFactor": 0
					,"roughnessFactor": 1
				}
				,"alphaMode": "OPAQUE"
				,"doubleSided": true
			},
			{
				"name": "Görünüm",
				"emissiveFactor": [
					0, 0, 0
				]
				,"pbrMetallicRoughness": {
					"baseColorFactor": [
						0.1036341, 0.325037, 0.003697239, 1
					]
					,"metallicFactor": 0
					,"roughnessFactor": 1
				}
				,"alphaMode": "OPAQUE"
				,"doubleSided": true
			},
			{
				"name": "Görünüm 7",
				"emissiveFactor": [
					0, 0, 0
				]
				,"pbrMetallicRoughness": {
					"baseColorFactor": [
						0.147998, 0.2195197, 0.5234432, 1
					]
					,"metallicFactor": 0
					,"roughnessFactor": 1
				}
				,"alphaMode": "OPAQUE"
				,"doubleSided": true
			}
	],
	"bufferViews" : [
			{
				"buffer": 0
				,"byteOffset" : 0
				,"byteLength" : 2880
				,"byteStride" : 12
				,"target" : 34962
			},
			{
				"buffer": 0
				,"byteOffset" : 2880
				,"byteLength" : 2880
				,"byteStride" : 12
				,"target" : 34962
			},
			{
				"buffer": 0
				,"byteOffset" : 5760
				,"byteLength" : 1920
				,"byteStride" : 8
				,"target" : 34962
			},
			{
				"buffer": 0
				,"byteOffset" : 7680
				,"byteLength" : 1992
				,"target" : 34963
			},
			{
				"buffer": 1
				,"byteOffset" : 0
				,"byteLength" : 33024
				,"byteStride" : 12
				,"target" : 34962
			},
			{
				"buffer": 1
				,"byteOffset" : 33024
				,"byteLength" : 33024
				,"byteStride" : 12
				,"target" : 34962
			},
			{
				"buffer": 1
				,"byteOffset" : 66048
				,"byteLength" : 22016
				,"byteStride" : 8
				,"target" : 34962
			},
			{
				"buffer": 1
				,"byteOffset" : 88064
				,"byteLength" : 23832
				,"target" : 34963
			},
			{
				"buffer": 2
				,"byteOffset" : 0
				,"byteLength" : 23448
				,"byteStride" : 12
				,"target" : 34962
			},
			{
				"buffer": 2
				,"byteOffset" : 23448
				,"byteLength" : 23448
				,"byteStride" : 12
				,"target" : 34962
			},
			{
				"buffer": 2
				,"byteOffset" : 46896
				,"byteLength" : 15632
				,"byteStride" : 8
				,"target" : 34962
			},
			{
				"buffer": 2
				,"byteOffset" : 62528
				,"byteLength" : 16632
				,"target" : 34963
			},
			{
				"buffer": 3
				,"byteOffset" : 0
				,"byteLength" : 4404
				,"byteStride" : 12
				,"target" : 34962
			},
			{
				"buffer": 3
				,"byteOffset" : 4404
				,"byteLength" : 4404
				,"byteStride" : 12
				,"target" : 34962
			},
			{
				"buffer": 3
				,"byteOffset" : 8808
				,"byteLength" : 2936
				,"byteStride" : 8
				,"target" : 34962
			},
			{
				"buffer": 3
				,"byteOffset" : 11744
				,"byteLength" : 2604
				,"target" : 34963
			},
			{
				"buffer": 4
				,"byteOffset" : 0
				,"byteLength" : 576
				,"byteStride" : 12
				,"target" : 34962
			},
			{
				"buffer": 4
				,"byteOffset" : 576
				,"byteLength" : 576
				,"byteStride" : 12
				,"target" : 34962
			},
			{
				"buffer": 4
				,"byteOffset" : 1152
				,"byteLength" : 384
				,"byteStride" : 8
				,"target" : 34962
			},
			{
				"buffer": 4
				,"byteOffset" : 1536
				,"byteLength" : 360
				,"target" : 34963
			},
			{
				"buffer": 5
				,"byteOffset" : 0
				,"byteLength" : 93912
				,"byteStride" : 12
				,"target" : 34962
			},
			{
				"buffer": 5
				,"byteOffset" : 93912
				,"byteLength" : 93912
				,"byteStride" : 12
				,"target" : 34962
			},
			{
				"buffer": 5
				,"byteOffset" : 187824
				,"byteLength" : 62608
				,"byteStride" : 8
				,"target" : 34962
			},
			{
				"buffer": 5
				,"byteOffset" : 250432
				,"byteLength" : 88128
				,"target" : 34963
			},
			{
				"buffer": 6
				,"byteOffset" : 0
				,"byteLength" : 120096
				,"byteStride" : 12
				,"target" : 34962
			},
			{
				"buffer": 6
				,"byteOffset" : 120096
				,"byteLength" : 120096
				,"byteStride" : 12
				,"target" : 34962
			},
			{
				"buffer": 6
				,"byteOffset" : 240192
				,"byteLength" : 80064
				,"byteStride" : 8
				,"target" : 34962
			},
			{
				"buffer": 6
				,"byteOffset" : 320256
				,"byteLength" : 107712
				,"target" : 34963
			},
			{
				"buffer": 7
				,"byteOffset" : 0
				,"byteLength" : 1200
				,"byteStride" : 12
				,"target" : 34962
			},
			{
				"buffer": 7
				,"byteOffset" : 1200
				,"byteLength" : 1200
				,"byteStride" : 12
				,"target" : 34962
			},
			{
				"buffer": 7
				,"byteOffset" : 2400
				,"byteLength" : 800
				,"byteStride" : 8
				,"target" : 34962
			},
			{
				"buffer": 7
				,"byteOffset" : 3200
				,"byteLength" : 1008
				,"target" : 34963
			},
			{
				"buffer": 8
				,"byteOffset" : 0
				,"byteLength" : 685224
				,"byteStride" : 12
				,"target" : 34962
			},
			{
				"buffer": 8
				,"byteOffset" : 685224
				,"byteLength" : 685224
				,"byteStride" : 12
				,"target" : 34962
			},
			{
				"buffer": 8
				,"byteOffset" : 1370448
				,"byteLength" : 456816
				,"byteStride" : 8
				,"target" : 34962
			},
			{
				"buffer": 8
				,"byteOffset" : 1827264
				,"byteLength" : 527352
				,"target" : 34963
			},
			{
				"buffer": 9
				,"byteOffset" : 0
				,"byteLength" : 5568
				,"byteStride" : 12
				,"target" : 34962
			},
			{
				"buffer": 9
				,"byteOffset" : 5568
				,"byteLength" : 5568
				,"byteStride" : 12
				,"target" : 34962
			},
			{
				"buffer": 9
				,"byteOffset" : 11136
				,"byteLength" : 3712
				,"byteStride" : 8
				,"target" : 34962
			},
			{
				"buffer": 9
				,"byteOffset" : 14848
				,"byteLength" : 4044
				,"target" : 34963
			},
			{
				"buffer": 10
				,"byteOffset" : 0
				,"byteLength" : 172068
				,"byteStride" : 12
				,"target" : 34962
			},
			{
				"buffer": 10
				,"byteOffset" : 172068
				,"byteLength" : 172068
				,"byteStride" : 12
				,"target" : 34962
			},
			{
				"buffer": 10
				,"byteOffset" : 344136
				,"byteLength" : 114712
				,"byteStride" : 8
				,"target" : 34962
			},
			{
				"buffer": 10
				,"byteOffset" : 458848
				,"byteLength" : 124068
				,"target" : 34963
			},
			{
				"buffer": 11
				,"byteOffset" : 0
				,"byteLength" : 3552
				,"byteStride" : 12
				,"target" : 34962
			},
			{
				"buffer": 11
				,"byteOffset" : 3552
				,"byteLength" : 3552
				,"byteStride" : 12
				,"target" : 34962
			},
			{
				"buffer": 11
				,"byteOffset" : 7104
				,"byteLength" : 2368
				,"byteStride" : 8
				,"target" : 34962
			},
			{
				"buffer": 11
				,"byteOffset" : 9472
				,"byteLength" : 3072
				,"target" : 34963
			},
			{
				"buffer": 12
				,"byteOffset" : 0
				,"byteLength" : 664440
				,"byteStride" : 12
				,"target" : 34962
			},
			{
				"buffer": 12
				,"byteOffset" : 664440
				,"byteLength" : 664440
				,"byteStride" : 12
				,"target" : 34962
			},
			{
				"buffer": 12
				,"byteOffset" : 1328880
				,"byteLength" : 442960
				,"byteStride" : 8
				,"target" : 34962
			},
			{
				"buffer": 12
				,"byteOffset" : 1771840
				,"byteLength" : 513444
				,"target" : 34963
			},
			{
				"buffer": 13
				,"byteOffset" : 0
				,"byteLength" : 4752
				,"byteStride" : 12
				,"target" : 34962
			},
			{
				"buffer": 13
				,"byteOffset" : 4752
				,"byteLength" : 4752
				,"byteStride" : 12
				,"target" : 34962
			},
			{
				"buffer": 13
				,"byteOffset" : 9504
				,"byteLength" : 3168
				,"byteStride" : 8
				,"target" : 34962
			},
			{
				"buffer": 13
				,"byteOffset" : 12672
				,"byteLength" : 3180
				,"target" : 34963
			}
	],
	"buffers" : [
			{
				"byteLength": 9672
				,"uri" : "karakter 3_0001.bin"
			},
			{
				"byteLength": 111896
				,"uri" : "karakter 3_0002.bin"
			},
			{
				"byteLength": 79160
				,"uri" : "karakter 3_0003.bin"
			},
			{
				"byteLength": 14348
				,"uri" : "karakter 3_0004.bin"
			},
			{
				"byteLength": 1896
				,"uri" : "karakter 3_0005.bin"
			},
			{
				"byteLength": 338560
				,"uri" : "karakter 3_0006.bin"
			},
			{
				"byteLength": 427968
				,"uri" : "karakter 3_0007.bin"
			},
			{
				"byteLength": 4208
				,"uri" : "karakter 3_0008.bin"
			},
			{
				"byteLength": 2354616
				,"uri" : "karakter 3_0009.bin"
			},
			{
				"byteLength": 18892
				,"uri" : "karakter 3_0010.bin"
			},
			{
				"byteLength": 582916
				,"uri" : "karakter 3_0011.bin"
			},
			{
				"byteLength": 12544
				,"uri" : "karakter 3_0012.bin"
			},
			{
				"byteLength": 2285284
				,"uri" : "karakter 3_0013.bin"
			},
			{
				"byteLength": 15852
				,"uri" : "karakter 3_0014.bin"
			}
	]
}
